<mxfile host="app.diagrams.net" agent="Mozilla/5.0 (Windows NT 10.0; Win64; x64) AppleWebKit/537.36 (KHTML, like Gecko) Chrome/131.0.0.0 Safari/537.36" version="25.0.3">
  <diagram name="Page-1" id="Ny9y6NlhDPDAZpSLU-Mv">
    <mxGraphModel>
      <root>
        <mxCell id="0" />
        <mxCell id="1" parent="0" />
        <mxCell id="2" value="Database" style="whiteSpace=wrap;strokeWidth=2;verticalAlign=top;" vertex="1" parent="1">
          <mxGeometry x="8" y="68" width="166" height="124" as="geometry" />
        </mxCell>
        <mxCell id="3" value="Database" style="rounded=1;arcSize=40;strokeWidth=2" vertex="1" parent="2">
          <mxGeometry x="43" y="46" width="96" height="49" as="geometry" />
        </mxCell>
        <mxCell id="4" value="Frontend" style="whiteSpace=wrap;strokeWidth=2;verticalAlign=top;" vertex="1" parent="1">
          <mxGeometry x="709" y="8" width="165" height="124" as="geometry" />
        </mxCell>
        <mxCell id="5" value="Frontend" style="rounded=1;arcSize=40;strokeWidth=2" vertex="1" parent="4">
          <mxGeometry x="43" y="46" width="95" height="49" as="geometry" />
        </mxCell>
        <mxCell id="6" value="Backend" style="whiteSpace=wrap;strokeWidth=2;verticalAlign=top;" vertex="1" parent="1">
          <mxGeometry x="355" y="52" width="160" height="124" as="geometry" />
        </mxCell>
        <mxCell id="7" value="Backend" style="rounded=1;arcSize=40;strokeWidth=2" vertex="1" parent="6">
          <mxGeometry x="43" y="46" width="90" height="49" as="geometry" />
        </mxCell>
        <mxCell id="8" value="Server" style="whiteSpace=wrap;strokeWidth=2;verticalAlign=top;" vertex="1" parent="1">
          <mxGeometry x="718" y="192" width="146" height="124" as="geometry" />
        </mxCell>
        <mxCell id="9" value="Server" style="rounded=1;arcSize=40;strokeWidth=2" vertex="1" parent="8">
          <mxGeometry x="43" y="46" width="76" height="49" as="geometry" />
        </mxCell>
        <mxCell id="10" value="User" style="whiteSpace=wrap;strokeWidth=2;verticalAlign=top;" vertex="1" parent="1">
          <mxGeometry x="1025" y="8" width="132" height="124" as="geometry" />
        </mxCell>
        <mxCell id="11" value="User" style="rounded=1;arcSize=40;strokeWidth=2" vertex="1" parent="10">
          <mxGeometry x="43" y="46" width="62" height="49" as="geometry" />
        </mxCell>
        <mxCell id="12" value="requests data" style="curved=1;startArrow=none;endArrow=block;exitX=0;exitY=0.56;entryX=1;entryY=0.56;" edge="1" parent="1" source="10" target="4">
          <mxGeometry relative="1" as="geometry">
            <Array as="points">
              <mxPoint x="949" y="85" />
            </Array>
          </mxGeometry>
        </mxCell>
        <mxCell id="13" value="sends request" style="curved=1;startArrow=none;endArrow=block;exitX=0;exitY=0.6;entryX=1;entryY=0.44;" edge="1" parent="1" source="4" target="6">
          <mxGeometry relative="1" as="geometry">
            <Array as="points">
              <mxPoint x="612" y="97" />
            </Array>
          </mxGeometry>
        </mxCell>
        <mxCell id="14" value="processes request" style="curved=1;startArrow=none;endArrow=block;exitX=0;exitY=0.52;entryX=1;entryY=0.45;" edge="1" parent="1" source="6" target="2">
          <mxGeometry relative="1" as="geometry">
            <Array as="points">
              <mxPoint x="264" y="118" />
            </Array>
          </mxGeometry>
        </mxCell>
        <mxCell id="15" value="returns data" style="curved=1;startArrow=none;endArrow=block;exitX=1;exitY=0.29;entryX=0;entryY=0.35;" edge="1" parent="1" source="2" target="6">
          <mxGeometry relative="1" as="geometry">
            <Array as="points">
              <mxPoint x="264" y="75" />
            </Array>
          </mxGeometry>
        </mxCell>
        <mxCell id="16" value="returns response" style="curved=1;startArrow=none;endArrow=block;exitX=1;exitY=0.2;entryX=0;entryY=0.36;" edge="1" parent="1" source="6" target="4">
          <mxGeometry relative="1" as="geometry">
            <Array as="points">
              <mxPoint x="612" y="33" />
            </Array>
          </mxGeometry>
        </mxCell>
        <mxCell id="17" value="displays data" style="curved=1;startArrow=none;endArrow=block;exitX=1;exitY=0.38;entryX=0;entryY=0.4;" edge="1" parent="1" source="4" target="10">
          <mxGeometry relative="1" as="geometry">
            <Array as="points">
              <mxPoint x="949" y="43" />
            </Array>
          </mxGeometry>
        </mxCell>
        <mxCell id="18" value="sends data to" style="curved=1;dashed=1;dashPattern=2 3;startArrow=none;endArrow=block;exitX=0;exitY=0.76;entryX=1;entryY=0.6;" edge="1" parent="1" source="4" target="6">
          <mxGeometry relative="1" as="geometry">
            <Array as="points">
              <mxPoint x="612" y="141" />
            </Array>
          </mxGeometry>
        </mxCell>
        <mxCell id="19" value="accesses data in" style="curved=1;dashed=1;dashPattern=2 3;startArrow=none;endArrow=block;exitX=0;exitY=0.84;entryX=1;entryY=0.79;" edge="1" parent="1" source="6" target="2">
          <mxGeometry relative="1" as="geometry">
            <Array as="points">
              <mxPoint x="264" y="205" />
            </Array>
          </mxGeometry>
        </mxCell>
        <mxCell id="20" value="communicates with" style="curved=1;dashed=1;dashPattern=2 3;startArrow=none;endArrow=block;exitX=1;exitY=0.75;entryX=0;entryY=0.27;" edge="1" parent="1" source="6" target="8">
          <mxGeometry relative="1" as="geometry">
            <Array as="points">
              <mxPoint x="612" y="184" />
            </Array>
          </mxGeometry>
        </mxCell>
        <mxCell id="21" value="communicates with" style="curved=1;dashed=1;dashPattern=2 3;startArrow=none;endArrow=block;exitX=0;exitY=0.5;entryX=1;entryY=0.97;" edge="1" parent="1" source="8" target="2">
          <mxGeometry relative="1" as="geometry">
            <Array as="points">
              <mxPoint x="264" y="253" />
            </Array>
          </mxGeometry>
        </mxCell>
      </root>
    </mxGraphModel>
  </diagram>
</mxfile>
